<svg xmlns="http://www.w3.org/2000/svg" xmlns:v="https://svgstorm.com"
viewBox = "0 0 500 500"
width="500"
height="500">
<g fill="None" fill-opacity="0.0" stroke="#000000" stroke-opacity="0.00" stroke-width="0.3"><path d="
M 0.00 500.00 
L 500.00 500.00
L 500.00 0.00
L 0.00 0.00
L 0.00 500.00
M 10.00 130.00 
C 30.59 131.93 52.31 130.00 73.00 130.00
C 147.00 130.00 221.00 130.00 295.00 130.00
C 295.00 131.00 295.00 132.00 295.00 133.00
C 300.56 144.11 292.27 150.93 296.00 164.00 C 299.73 177.07 288.14 179.38 277.00 178.00 C 265.86 176.62 255.88 178.05 245.00 178.00 C 234.12 177.95 223.00 177.29 213.00 177.00
C 209.03 177.36 205.74 176.89 202.00 177.00
C 200.69 177.04 198.05 178.10 196.00 178.00
C 197.70 184.73 193.56 194.93 195.00 203.00 C 196.44 211.07 194.97 219.04 195.07 227.07 C 195.18 235.10 195.45 243.85 195.00 252.00 C 194.55 260.15 194.68 269.80 195.00 278.00 C 195.32 286.20 194.43 295.34 195.00 303.00 C 195.57 310.66 193.64 319.25 195.00 327.00 C 196.36 334.75 192.03 345.66 195.00 352.00
C 199.69 356.58 206.72 341.29 211.30 337.30 C 215.89 333.31 222.03 321.48 228.00 319.00
C 228.18 318.93 228.00 318.00 228.00 318.00
C 232.78 308.22 245.25 299.22 252.00 291.00
C 252.75 290.09 253.33 288.91 254.00 288.00
C 256.86 284.12 260.13 281.49 263.00 278.00
C 263.75 277.09 264.32 275.89 265.00 275.00
C 269.91 268.50 275.64 263.18 279.00 256.00
C 282.40 255.90 285.83 259.47 287.00 262.00
C 287.16 262.27 287.73 262.80 288.00 263.00
C 296.51 269.40 303.03 281.81 310.00 290.00
C 310.94 291.10 311.25 291.91 312.00 293.00
C 313.88 295.71 317.46 297.85 319.00 301.00
C 319.20 301.40 319.00 302.00 319.00 302.00
C 328.59 311.82 336.77 325.39 347.00 334.00
C 353.96 321.23 360.47 308.11 366.92 294.92 C 373.38 281.74 381.41 269.00 387.75 255.75 C 394.10 242.51 400.26 229.35 407.31 216.31 C 414.35 203.26 420.33 189.27 427.75 176.75 C 435.18 164.24 437.01 141.02 457.00 146.00
C 466.98 146.00 477.03 146.34 487.00 146.00
C 490.43 145.88 492.74 145.31 496.00 146.00
C 490.54 155.25 485.09 164.94 480.23 175.23 C 475.36 185.51 470.19 196.04 465.25 206.25 C 460.30 216.45 455.71 227.05 450.08 237.08 C 444.44 247.10 439.67 257.17 434.23 267.23 C 428.78 277.29 423.62 287.43 418.68 297.68 C 413.74 307.93 408.43 318.12 403.23 328.23 C 398.03 338.34 393.05 349.00 388.08 359.08 C 383.11 369.15 377.21 379.37 372.23 389.23 C 367.25 399.09 353.77 397.68 343.93 396.93 C 334.09 396.18 328.48 380.23 321.25 373.75 C 314.02 367.27 308.19 355.66 300.70 348.30 C 293.21 340.95 287.00 330.26 279.00 324.00
C 276.43 328.05 271.12 331.35 268.00 335.00
C 266.24 337.06 265.59 338.53 263.00 340.00
C 262.79 340.12 263.00 341.00 263.00 341.00
C 262.08 342.88 260.15 343.60 259.00 345.00
C 257.55 347.07 255.72 348.99 254.00 351.00
C 248.57 357.36 242.61 368.39 235.90 373.90 C 229.19 379.41 224.10 393.96 216.00 396.00
C 203.21 399.22 186.02 391.44 174.00 397.00
C 167.06 405.29 158.70 412.61 152.70 421.70 C 146.70 430.79 145.00 424.34 145.00 416.00
C 145.00 343.84 146.00 271.88 146.00 200.00
C 146.00 198.00 146.00 196.00 146.00 194.00
C 146.00 190.24 147.07 184.91 147.00 182.00
C 146.78 180.36 147.16 178.65 147.00 177.00
C 126.65 177.95 105.34 177.51 85.00 177.00
C 81.30 180.82 70.54 177.03 65.00 178.00 C 59.46 178.97 49.36 178.56 45.00 176.00
C 38.65 172.27 33.84 164.81 28.10 159.90 C 22.36 154.99 17.56 147.68 12.70 142.30 C 7.83 136.92 -4.18 128.67 10.00 130.00 Z"/>
</g>
<g fill="None" fill-opacity="0.0" stroke="#FFFFFF" stroke-opacity="0.97" stroke-width="0.3"><path d="
M 45.00 176.00 
C 49.66 177.36 57.83 175.71 64.00 176.00 C 70.17 176.29 78.70 176.59 85.00 176.00
C 96.44 174.93 109.17 174.07 121.00 175.00 C 132.83 175.93 149.40 169.50 148.00 184.00
C 148.55 186.57 146.69 188.47 148.00 191.00 C 149.31 193.53 145.79 194.85 146.00 194.00
C 146.00 196.00 146.00 198.00 146.00 200.00
C 146.64 202.75 147.46 211.41 147.00 219.00 C 146.54 226.59 147.20 236.02 147.00 244.00 C 146.80 251.98 147.08 260.86 147.00 269.00 C 146.92 277.14 147.01 285.83 147.00 294.00 C 146.99 302.17 146.95 309.80 147.00 318.00 C 147.05 326.20 146.86 334.76 147.00 343.00 C 147.14 351.24 146.67 359.77 147.00 368.00 C 147.33 376.23 146.26 384.87 147.00 393.00 C 147.74 401.13 146.24 410.13 145.00 416.00
C 145.00 424.34 146.70 430.79 152.70 421.70 C 158.70 412.61 167.06 405.29 174.00 397.00
C 176.97 393.45 185.75 393.20 193.00 394.00 C 200.25 394.80 211.18 391.77 216.00 396.00
C 224.10 393.96 229.19 379.41 235.90 373.90 C 242.61 368.39 248.57 357.36 254.00 351.00
C 254.38 350.28 260.78 337.67 263.00 340.00
C 265.59 338.53 266.24 337.06 268.00 335.00
C 270.12 330.98 274.61 324.22 280.00 321.00
C 280.53 322.28 279.03 322.86 279.00 324.00
C 287.00 330.26 293.21 340.95 300.70 348.30 C 308.19 355.66 314.02 367.27 321.25 373.75 C 328.48 380.23 334.09 396.18 343.93 396.93 C 353.77 397.68 367.25 399.09 372.23 389.23 C 377.21 379.37 383.11 369.15 388.08 359.08 C 393.05 349.00 398.03 338.34 403.23 328.23 C 408.43 318.12 413.74 307.93 418.68 297.68 C 423.62 287.43 428.78 277.29 434.23 267.23 C 439.67 257.17 444.44 247.10 450.08 237.08 C 455.71 227.05 460.30 216.45 465.25 206.25 C 470.19 196.04 475.36 185.51 480.23 175.23 C 485.09 164.94 490.54 155.25 496.00 146.00
C 492.74 145.31 490.43 145.88 487.00 146.00
C 486.95 146.01 487.00 147.00 487.00 147.00
C 484.25 149.84 474.47 147.14 471.00 148.00 C 467.53 148.86 456.63 147.55 457.00 147.00
C 457.23 146.65 457.00 146.00 457.00 146.00
C 437.01 141.02 435.18 164.24 427.75 176.75 C 420.33 189.27 414.35 203.26 407.31 216.31 C 400.26 229.35 394.10 242.51 387.75 255.75 C 381.41 269.00 373.38 281.74 366.92 294.92 C 360.47 308.11 353.96 321.23 347.00 334.00
C 336.77 325.39 328.59 311.82 319.00 302.00
C 317.11 302.58 316.28 299.73 319.00 301.00
C 317.46 297.85 313.88 295.71 312.00 293.00
C 311.31 292.42 310.52 291.04 310.00 290.00
C 303.03 281.81 296.51 269.40 288.00 263.00
C 288.48 263.98 289.22 264.78 289.00 266.00
C 287.67 265.52 285.42 262.78 287.00 262.00
C 285.83 259.47 282.40 255.90 279.00 256.00
C 275.64 263.18 269.91 268.50 265.00 275.00
C 265.31 274.31 266.91 275.39 265.73 276.75 C 264.55 278.12 262.97 278.02 263.00 278.00
C 260.13 281.49 256.86 284.12 254.00 288.00
C 254.46 286.45 256.32 287.51 255.21 289.24 C 254.10 290.96 252.07 290.95 252.00 291.00
C 245.25 299.22 232.78 308.22 228.00 318.00
C 229.04 317.01 230.52 315.95 232.00 316.00
C 231.18 317.04 229.09 320.81 228.00 319.00
C 222.03 321.48 215.89 333.31 211.30 337.30 C 206.72 341.29 199.69 356.58 195.00 352.00
C 190.77 347.86 193.57 338.99 193.00 332.00 C 192.43 325.01 193.25 316.36 193.00 309.00 C 192.75 301.64 193.10 293.52 193.00 286.00 C 192.90 278.48 193.02 270.59 193.00 263.00 C 192.98 255.41 192.96 247.61 193.00 240.00 C 193.04 232.39 192.87 224.59 193.00 217.00 C 193.13 209.41 192.69 201.53 193.00 194.00 C 193.31 186.47 191.10 177.76 196.00 178.00
C 198.05 178.10 200.69 177.04 202.00 177.00
C 200.35 177.88 203.90 174.42 208.00 175.00 C 212.11 175.58 216.18 175.64 220.00 176.00
C 230.96 177.03 241.98 175.42 253.00 176.00 C 264.02 176.58 276.02 175.45 287.00 176.00 C 297.98 176.55 294.73 157.34 294.00 149.00
C 293.53 143.61 292.29 137.75 293.00 132.00
C 198.83 131.33 103.35 133.33 10.00 131.00
C 9.75 130.74 10.00 130.00 10.00 130.00
C -4.18 128.67 7.83 136.92 12.70 142.30 C 17.56 147.68 22.36 154.99 28.10 159.90 C 33.84 164.81 38.65 172.27 45.00 176.00
M 295.00 339.00 
C 289.09 337.75 292.25 333.03 295.00 339.00
M 250.00 354.00 
C 250.06 358.33 246.15 355.49 250.00 354.00
M 228.00 382.00 
C 225.59 387.21 222.50 382.74 228.00 382.00 Z"/>
</g>
<g fill="None" fill-opacity="0.0" stroke="#FFFFFF" stroke-opacity="0.31" stroke-width="0.3"><path d="
M 10.00 131.00 
C 30.16 132.82 53.63 131.87 73.00 130.00
C 52.31 130.00 30.59 131.93 10.00 130.00
C 10.00 130.00 9.75 130.74 10.00 131.00 Z"/>
</g>
<g fill="None" fill-opacity="0.0" stroke="#FFFFFF" stroke-opacity="0.61" stroke-width="0.3"><path d="
M 10.00 131.00 
C 103.35 133.33 198.83 131.33 293.00 132.00
C 292.29 137.75 293.53 143.61 294.00 149.00
C 294.39 144.92 296.52 137.68 295.00 133.00
C 295.00 132.00 295.00 131.00 295.00 130.00
C 221.00 130.00 147.00 130.00 73.00 130.00
C 53.63 131.87 30.16 132.82 10.00 131.00 Z"/>
</g>
<g fill="None" fill-opacity="0.0" stroke="#FFFFFF" stroke-opacity="0.31" stroke-width="0.3"><path d="
M 294.00 149.00 
C 294.73 157.34 297.98 176.55 287.00 176.00 C 276.02 175.45 264.02 176.58 253.00 176.00 C 241.98 175.42 230.96 177.03 220.00 176.00
C 218.36 176.16 215.23 176.80 213.00 177.00
C 223.00 177.29 234.12 177.95 245.00 178.00 C 255.88 178.05 265.86 176.62 277.00 178.00 C 288.14 179.38 299.73 177.07 296.00 164.00 C 292.27 150.93 300.56 144.11 295.00 133.00
C 296.52 137.68 294.39 144.92 294.00 149.00 Z"/>
</g>
<g fill="None" fill-opacity="0.0" stroke="#FFFFFF" stroke-opacity="0.27" stroke-width="0.3"><path d="
M 457.00 147.00 
C 466.46 147.85 477.54 147.86 487.00 147.00
C 487.00 147.00 486.95 146.01 487.00 146.00
C 477.03 146.34 466.98 146.00 457.00 146.00
C 457.00 146.00 457.23 146.65 457.00 147.00 Z"/>
</g>
<g fill="None" fill-opacity="0.0" stroke="#FFFFFF" stroke-opacity="0.85" stroke-width="0.3"><path d="
M 487.00 147.00 
C 477.54 147.86 466.46 147.85 457.00 147.00
C 456.63 147.55 467.53 148.86 471.00 148.00 C 474.47 147.14 484.25 149.84 487.00 147.00 Z"/>
</g>
<g fill="None" fill-opacity="0.0" stroke="#FFFFFF" stroke-opacity="0.27" stroke-width="0.3"><path d="
M 45.00 176.00 
C 49.36 178.56 59.46 178.97 65.00 178.00 C 70.54 177.03 81.30 180.82 85.00 177.00
C 85.25 176.74 85.00 176.00 85.00 176.00
C 78.70 176.59 70.17 176.29 64.00 176.00 C 57.83 175.71 49.66 177.36 45.00 176.00 Z"/>
</g>
<g fill="None" fill-opacity="0.0" stroke="#FFFFFF" stroke-opacity="0.46" stroke-width="0.3"><path d="
M 85.00 176.00 
C 85.00 176.00 85.25 176.74 85.00 177.00
C 105.34 177.51 126.65 177.95 147.00 177.00
C 147.16 178.65 146.78 180.36 147.00 182.00
C 147.10 182.75 147.83 183.22 148.00 184.00
C 149.40 169.50 132.83 175.93 121.00 175.00 C 109.17 174.07 96.44 174.93 85.00 176.00 Z"/>
</g>
<g fill="None" fill-opacity="0.0" stroke="#FFFFFF" stroke-opacity="0.54" stroke-width="0.3"><path d="
M 202.00 177.00 
C 205.74 176.89 209.03 177.36 213.00 177.00
C 215.23 176.80 218.36 176.16 220.00 176.00
C 216.18 175.64 212.11 175.58 208.00 175.00 C 203.90 174.42 200.35 177.88 202.00 177.00 Z"/>
</g>
<g fill="None" fill-opacity="0.0" stroke="#FFFFFF" stroke-opacity="0.51" stroke-width="0.3"><path d="
M 195.00 352.00 
C 192.03 345.66 196.36 334.75 195.00 327.00 C 193.64 319.25 195.57 310.66 195.00 303.00 C 194.43 295.34 195.32 286.20 195.00 278.00 C 194.68 269.80 194.55 260.15 195.00 252.00 C 195.45 243.85 195.18 235.10 195.07 227.07 C 194.97 219.04 196.44 211.07 195.00 203.00 C 193.56 194.93 197.70 184.73 196.00 178.00
C 191.10 177.76 193.31 186.47 193.00 194.00 C 192.69 201.53 193.13 209.41 193.00 217.00 C 192.87 224.59 193.04 232.39 193.00 240.00 C 192.96 247.61 192.98 255.41 193.00 263.00 C 193.02 270.59 192.90 278.48 193.00 286.00 C 193.10 293.52 192.75 301.64 193.00 309.00 C 193.25 316.36 192.43 325.01 193.00 332.00 C 193.57 338.99 190.77 347.86 195.00 352.00 Z"/>
</g>
<g fill="None" fill-opacity="0.0" stroke="#FFFFFF" stroke-opacity="0.28" stroke-width="0.3"><path d="
M 146.00 194.00 
C 145.79 194.85 149.31 193.53 148.00 191.00 C 146.69 188.47 148.55 186.57 148.00 184.00
C 147.83 183.22 147.10 182.75 147.00 182.00
C 147.07 184.91 146.00 190.24 146.00 194.00 Z"/>
</g>
<g fill="None" fill-opacity="0.0" stroke="#FFFFFF" stroke-opacity="0.33" stroke-width="0.3"><path d="
M 146.00 200.00 
C 146.00 271.88 145.00 343.84 145.00 416.00
C 146.24 410.13 147.74 401.13 147.00 393.00 C 146.26 384.87 147.33 376.23 147.00 368.00 C 146.67 359.77 147.14 351.24 147.00 343.00 C 146.86 334.76 147.05 326.20 147.00 318.00 C 146.95 309.80 146.99 302.17 147.00 294.00 C 147.01 285.83 146.92 277.14 147.00 269.00 C 147.08 260.86 146.80 251.98 147.00 244.00 C 147.20 236.02 146.54 226.59 147.00 219.00 C 147.46 211.41 146.64 202.75 146.00 200.00 Z"/>
</g>
<g fill="None" fill-opacity="0.0" stroke="#FFFFFF" stroke-opacity="0.54" stroke-width="0.3"><path d="
M 288.00 263.00 
C 287.73 262.80 287.16 262.27 287.00 262.00
C 285.42 262.78 287.67 265.52 289.00 266.00
C 289.22 264.78 288.48 263.98 288.00 263.00 Z"/>
</g>
<g fill="None" fill-opacity="0.0" stroke="#FFFFFF" stroke-opacity="0.53" stroke-width="0.3"><path d="
M 263.00 278.00 
C 262.97 278.02 264.55 278.12 265.73 276.75 C 266.91 275.39 265.31 274.31 265.00 275.00
C 264.32 275.89 263.75 277.09 263.00 278.00 Z"/>
</g>
<g fill="None" fill-opacity="0.0" stroke="#FFFFFF" stroke-opacity="0.40" stroke-width="0.3"><path d="
M 254.00 288.00 
C 253.33 288.91 252.75 290.09 252.00 291.00
C 252.07 290.95 254.10 290.96 255.21 289.24 C 256.32 287.51 254.46 286.45 254.00 288.00 Z"/>
</g>
<g fill="None" fill-opacity="0.0" stroke="#FFFFFF" stroke-opacity="0.29" stroke-width="0.3"><path d="
M 312.00 293.00 
C 311.25 291.91 310.94 291.10 310.00 290.00
C 310.52 291.04 311.31 292.42 312.00 293.00 Z"/>
</g>
<g fill="None" fill-opacity="0.0" stroke="#FFFFFF" stroke-opacity="0.48" stroke-width="0.3"><path d="
M 319.00 302.00 
C 319.00 302.00 319.20 301.40 319.00 301.00
C 316.28 299.73 317.11 302.58 319.00 302.00 Z"/>
</g>
<g fill="None" fill-opacity="0.0" stroke="#FFFFFF" stroke-opacity="0.60" stroke-width="0.3"><path d="
M 228.00 318.00 
C 228.00 318.00 228.18 318.93 228.00 319.00
C 229.09 320.81 231.18 317.04 232.00 316.00
C 230.52 315.95 229.04 317.01 228.00 318.00 Z"/>
</g>
<g fill="None" fill-opacity="0.0" stroke="#FFFFFF" stroke-opacity="0.35" stroke-width="0.3"><path d="
M 268.00 335.00 
C 271.12 331.35 276.43 328.05 279.00 324.00
C 279.03 322.86 280.53 322.28 280.00 321.00
C 274.61 324.22 270.12 330.98 268.00 335.00 Z"/>
</g>
<g fill="None" fill-opacity="0.0" stroke="#FFFFFF" stroke-opacity="0.67" stroke-width="0.3"><path d="
M 295.00 339.00 
C 292.25 333.03 289.09 337.75 295.00 339.00 Z"/>
</g>
<g fill="None" fill-opacity="0.0" stroke="#FFFFFF" stroke-opacity="0.37" stroke-width="0.3"><path d="
M 254.00 351.00 
C 255.72 348.99 257.55 347.07 259.00 345.00
C 260.18 343.31 261.36 342.14 263.00 341.00
C 263.00 341.00 262.79 340.12 263.00 340.00
C 260.78 337.67 254.38 350.28 254.00 351.00 Z"/>
</g>
<g fill="None" fill-opacity="0.0" stroke="#FFFFFF" stroke-opacity="0.06" stroke-width="0.3"><path d="
M 259.00 345.00 
C 260.15 343.60 262.08 342.88 263.00 341.00
C 261.36 342.14 260.18 343.31 259.00 345.00 Z"/>
</g>
<g fill="None" fill-opacity="0.0" stroke="#FFFFFF" stroke-opacity="0.60" stroke-width="0.3"><path d="
M 250.00 354.00 
C 246.15 355.49 250.06 358.33 250.00 354.00 Z"/>
</g>
<g fill="None" fill-opacity="0.0" stroke="#FFFFFF" stroke-opacity="0.62" stroke-width="0.3"><path d="
M 228.00 382.00 
C 222.50 382.74 225.59 387.21 228.00 382.00 Z"/>
</g>
<g fill="None" fill-opacity="0.0" stroke="#FFFFFF" stroke-opacity="0.42" stroke-width="0.3"><path d="
M 174.00 397.00 
C 186.02 391.44 203.21 399.22 216.00 396.00
C 211.18 391.77 200.25 394.80 193.00 394.00 C 185.75 393.20 176.97 393.45 174.00 397.00 Z"/>
</g>
<g fill="#000000" fill-opacity="0.00" stroke="None">
<path d="
M 0.00 500.00 
L 500.00 500.00
L 500.00 0.00
L 0.00 0.00
L 0.00 500.00
M 10.00 130.00 
C 30.59 131.93 52.31 130.00 73.00 130.00
C 147.00 130.00 221.00 130.00 295.00 130.00
C 295.00 131.00 295.00 132.00 295.00 133.00
C 300.56 144.11 292.27 150.93 296.00 164.00 C 299.73 177.07 288.14 179.38 277.00 178.00 C 265.86 176.62 255.88 178.05 245.00 178.00 C 234.12 177.95 223.00 177.29 213.00 177.00
C 209.03 177.36 205.74 176.89 202.00 177.00
C 200.69 177.04 198.05 178.10 196.00 178.00
C 197.70 184.73 193.56 194.93 195.00 203.00 C 196.44 211.07 194.97 219.04 195.07 227.07 C 195.18 235.10 195.45 243.85 195.00 252.00 C 194.55 260.15 194.68 269.80 195.00 278.00 C 195.32 286.20 194.43 295.34 195.00 303.00 C 195.57 310.66 193.64 319.25 195.00 327.00 C 196.36 334.75 192.03 345.66 195.00 352.00
C 199.69 356.58 206.72 341.29 211.30 337.30 C 215.89 333.31 222.03 321.48 228.00 319.00
C 228.18 318.93 228.00 318.00 228.00 318.00
C 232.78 308.22 245.25 299.22 252.00 291.00
C 252.75 290.09 253.33 288.91 254.00 288.00
C 256.86 284.12 260.13 281.49 263.00 278.00
C 263.75 277.09 264.32 275.89 265.00 275.00
C 269.91 268.50 275.64 263.18 279.00 256.00
C 282.40 255.90 285.83 259.47 287.00 262.00
C 287.16 262.27 287.73 262.80 288.00 263.00
C 296.51 269.40 303.03 281.81 310.00 290.00
C 310.94 291.10 311.25 291.91 312.00 293.00
C 313.88 295.71 317.46 297.85 319.00 301.00
C 319.20 301.40 319.00 302.00 319.00 302.00
C 328.59 311.82 336.77 325.39 347.00 334.00
C 353.96 321.23 360.47 308.11 366.92 294.92 C 373.38 281.74 381.41 269.00 387.75 255.75 C 394.10 242.51 400.26 229.35 407.31 216.31 C 414.35 203.26 420.33 189.27 427.75 176.75 C 435.18 164.24 437.01 141.02 457.00 146.00
C 466.98 146.00 477.03 146.34 487.00 146.00
C 490.43 145.88 492.74 145.31 496.00 146.00
C 490.54 155.25 485.09 164.94 480.23 175.23 C 475.36 185.51 470.19 196.04 465.25 206.25 C 460.30 216.45 455.71 227.05 450.08 237.08 C 444.44 247.10 439.67 257.17 434.23 267.23 C 428.78 277.29 423.62 287.43 418.68 297.68 C 413.74 307.93 408.43 318.12 403.23 328.23 C 398.03 338.34 393.05 349.00 388.08 359.08 C 383.11 369.15 377.21 379.37 372.23 389.23 C 367.25 399.09 353.77 397.68 343.93 396.93 C 334.09 396.18 328.48 380.23 321.25 373.75 C 314.02 367.27 308.19 355.66 300.70 348.30 C 293.21 340.95 287.00 330.26 279.00 324.00
C 276.43 328.05 271.12 331.35 268.00 335.00
C 266.24 337.06 265.59 338.53 263.00 340.00
C 262.79 340.12 263.00 341.00 263.00 341.00
C 262.08 342.88 260.15 343.60 259.00 345.00
C 257.55 347.07 255.72 348.99 254.00 351.00
C 248.57 357.36 242.61 368.39 235.90 373.90 C 229.19 379.41 224.10 393.96 216.00 396.00
C 203.21 399.22 186.02 391.44 174.00 397.00
C 167.06 405.29 158.70 412.61 152.70 421.70 C 146.70 430.79 145.00 424.34 145.00 416.00
C 145.00 343.84 146.00 271.88 146.00 200.00
C 146.00 198.00 146.00 196.00 146.00 194.00
C 146.00 190.24 147.07 184.91 147.00 182.00
C 146.78 180.36 147.16 178.65 147.00 177.00
C 126.65 177.95 105.34 177.51 85.00 177.00
C 81.30 180.82 70.54 177.03 65.00 178.00 C 59.46 178.97 49.36 178.56 45.00 176.00
C 38.65 172.27 33.84 164.81 28.10 159.90 C 22.36 154.99 17.56 147.68 12.70 142.30 C 7.83 136.92 -4.18 128.67 10.00 130.00 Z"/>
</g>
<g fill="#FFFFFF" fill-opacity="0.97" stroke="None">
<path d="
M 45.00 176.00 
C 49.66 177.36 57.83 175.71 64.00 176.00 C 70.17 176.29 78.70 176.59 85.00 176.00
C 96.44 174.93 109.17 174.07 121.00 175.00 C 132.83 175.93 149.40 169.50 148.00 184.00
C 148.55 186.57 146.69 188.47 148.00 191.00 C 149.31 193.53 145.79 194.85 146.00 194.00
C 146.00 196.00 146.00 198.00 146.00 200.00
C 146.64 202.75 147.46 211.41 147.00 219.00 C 146.54 226.59 147.20 236.02 147.00 244.00 C 146.80 251.98 147.08 260.86 147.00 269.00 C 146.92 277.14 147.01 285.83 147.00 294.00 C 146.99 302.17 146.95 309.80 147.00 318.00 C 147.05 326.20 146.86 334.76 147.00 343.00 C 147.14 351.24 146.67 359.77 147.00 368.00 C 147.33 376.23 146.26 384.87 147.00 393.00 C 147.74 401.13 146.24 410.13 145.00 416.00
C 145.00 424.34 146.70 430.79 152.70 421.70 C 158.70 412.61 167.06 405.29 174.00 397.00
C 176.97 393.45 185.75 393.20 193.00 394.00 C 200.25 394.80 211.18 391.77 216.00 396.00
C 224.10 393.96 229.19 379.41 235.90 373.90 C 242.61 368.39 248.57 357.36 254.00 351.00
C 254.38 350.28 260.78 337.67 263.00 340.00
C 265.59 338.53 266.24 337.06 268.00 335.00
C 270.12 330.98 274.61 324.22 280.00 321.00
C 280.53 322.28 279.03 322.86 279.00 324.00
C 287.00 330.26 293.21 340.95 300.70 348.30 C 308.19 355.66 314.02 367.27 321.25 373.75 C 328.48 380.23 334.09 396.18 343.93 396.93 C 353.77 397.68 367.25 399.09 372.23 389.23 C 377.21 379.37 383.11 369.15 388.08 359.08 C 393.05 349.00 398.03 338.34 403.23 328.23 C 408.43 318.12 413.74 307.93 418.68 297.68 C 423.62 287.43 428.78 277.29 434.23 267.23 C 439.67 257.17 444.44 247.10 450.08 237.08 C 455.71 227.05 460.30 216.45 465.25 206.25 C 470.19 196.04 475.36 185.51 480.23 175.23 C 485.09 164.94 490.54 155.25 496.00 146.00
C 492.74 145.31 490.43 145.88 487.00 146.00
C 486.95 146.01 487.00 147.00 487.00 147.00
C 484.25 149.84 474.47 147.14 471.00 148.00 C 467.53 148.86 456.63 147.55 457.00 147.00
C 457.23 146.65 457.00 146.00 457.00 146.00
C 437.01 141.02 435.18 164.24 427.75 176.75 C 420.33 189.27 414.35 203.26 407.31 216.31 C 400.26 229.35 394.10 242.51 387.75 255.75 C 381.41 269.00 373.38 281.74 366.92 294.92 C 360.47 308.11 353.96 321.23 347.00 334.00
C 336.77 325.39 328.59 311.82 319.00 302.00
C 317.11 302.58 316.28 299.73 319.00 301.00
C 317.46 297.85 313.88 295.71 312.00 293.00
C 311.31 292.42 310.52 291.04 310.00 290.00
C 303.03 281.81 296.51 269.40 288.00 263.00
C 288.48 263.98 289.22 264.78 289.00 266.00
C 287.67 265.52 285.42 262.78 287.00 262.00
C 285.83 259.47 282.40 255.90 279.00 256.00
C 275.64 263.18 269.91 268.50 265.00 275.00
C 265.31 274.31 266.91 275.39 265.73 276.75 C 264.55 278.12 262.97 278.02 263.00 278.00
C 260.13 281.49 256.86 284.12 254.00 288.00
C 254.46 286.45 256.32 287.51 255.21 289.24 C 254.10 290.96 252.07 290.95 252.00 291.00
C 245.25 299.22 232.78 308.22 228.00 318.00
C 229.04 317.01 230.52 315.95 232.00 316.00
C 231.18 317.04 229.09 320.81 228.00 319.00
C 222.03 321.48 215.89 333.31 211.30 337.30 C 206.72 341.29 199.69 356.58 195.00 352.00
C 190.77 347.86 193.57 338.99 193.00 332.00 C 192.43 325.01 193.25 316.36 193.00 309.00 C 192.75 301.64 193.10 293.52 193.00 286.00 C 192.90 278.48 193.02 270.59 193.00 263.00 C 192.98 255.41 192.96 247.61 193.00 240.00 C 193.04 232.39 192.87 224.59 193.00 217.00 C 193.13 209.41 192.69 201.53 193.00 194.00 C 193.31 186.47 191.10 177.76 196.00 178.00
C 198.05 178.10 200.69 177.04 202.00 177.00
C 200.35 177.88 203.90 174.42 208.00 175.00 C 212.11 175.58 216.18 175.64 220.00 176.00
C 230.96 177.03 241.98 175.42 253.00 176.00 C 264.02 176.58 276.02 175.45 287.00 176.00 C 297.98 176.55 294.73 157.34 294.00 149.00
C 293.53 143.61 292.29 137.75 293.00 132.00
C 198.83 131.33 103.35 133.33 10.00 131.00
C 9.75 130.74 10.00 130.00 10.00 130.00
C -4.18 128.67 7.83 136.92 12.70 142.30 C 17.56 147.68 22.36 154.99 28.10 159.90 C 33.84 164.81 38.65 172.27 45.00 176.00
M 295.00 339.00 
C 289.09 337.75 292.25 333.03 295.00 339.00
M 250.00 354.00 
C 250.06 358.33 246.15 355.49 250.00 354.00
M 228.00 382.00 
C 225.59 387.21 222.50 382.74 228.00 382.00 Z"/>
</g>
<g fill="#FFFFFF" fill-opacity="0.31" stroke="None">
<path d="
M 10.00 131.00 
C 30.16 132.82 53.63 131.87 73.00 130.00
C 52.31 130.00 30.59 131.93 10.00 130.00
C 10.00 130.00 9.75 130.74 10.00 131.00 Z"/>
</g>
<g fill="#FFFFFF" fill-opacity="0.61" stroke="None">
<path d="
M 10.00 131.00 
C 103.35 133.33 198.83 131.33 293.00 132.00
C 292.29 137.75 293.53 143.61 294.00 149.00
C 294.39 144.92 296.52 137.68 295.00 133.00
C 295.00 132.00 295.00 131.00 295.00 130.00
C 221.00 130.00 147.00 130.00 73.00 130.00
C 53.63 131.87 30.16 132.82 10.00 131.00 Z"/>
</g>
<g fill="#FFFFFF" fill-opacity="0.31" stroke="None">
<path d="
M 294.00 149.00 
C 294.73 157.34 297.98 176.55 287.00 176.00 C 276.02 175.45 264.02 176.58 253.00 176.00 C 241.98 175.42 230.96 177.03 220.00 176.00
C 218.36 176.16 215.23 176.80 213.00 177.00
C 223.00 177.29 234.12 177.95 245.00 178.00 C 255.88 178.05 265.86 176.62 277.00 178.00 C 288.14 179.38 299.73 177.07 296.00 164.00 C 292.27 150.93 300.56 144.11 295.00 133.00
C 296.52 137.68 294.39 144.92 294.00 149.00 Z"/>
</g>
<g fill="#FFFFFF" fill-opacity="0.27" stroke="None">
<path d="
M 457.00 147.00 
C 466.46 147.85 477.54 147.86 487.00 147.00
C 487.00 147.00 486.95 146.01 487.00 146.00
C 477.03 146.34 466.98 146.00 457.00 146.00
C 457.00 146.00 457.23 146.65 457.00 147.00 Z"/>
</g>
<g fill="#FFFFFF" fill-opacity="0.85" stroke="None">
<path d="
M 487.00 147.00 
C 477.54 147.86 466.46 147.85 457.00 147.00
C 456.63 147.55 467.53 148.86 471.00 148.00 C 474.47 147.14 484.25 149.84 487.00 147.00 Z"/>
</g>
<g fill="#FFFFFF" fill-opacity="0.27" stroke="None">
<path d="
M 45.00 176.00 
C 49.36 178.56 59.46 178.97 65.00 178.00 C 70.54 177.03 81.30 180.82 85.00 177.00
C 85.25 176.74 85.00 176.00 85.00 176.00
C 78.70 176.59 70.17 176.29 64.00 176.00 C 57.83 175.71 49.66 177.36 45.00 176.00 Z"/>
</g>
<g fill="#FFFFFF" fill-opacity="0.46" stroke="None">
<path d="
M 85.00 176.00 
C 85.00 176.00 85.25 176.74 85.00 177.00
C 105.34 177.51 126.65 177.95 147.00 177.00
C 147.16 178.65 146.78 180.36 147.00 182.00
C 147.10 182.75 147.83 183.22 148.00 184.00
C 149.40 169.50 132.83 175.93 121.00 175.00 C 109.17 174.07 96.44 174.93 85.00 176.00 Z"/>
</g>
<g fill="#FFFFFF" fill-opacity="0.54" stroke="None">
<path d="
M 202.00 177.00 
C 205.74 176.89 209.03 177.36 213.00 177.00
C 215.23 176.80 218.36 176.16 220.00 176.00
C 216.18 175.64 212.11 175.58 208.00 175.00 C 203.90 174.42 200.35 177.88 202.00 177.00 Z"/>
</g>
<g fill="#FFFFFF" fill-opacity="0.51" stroke="None">
<path d="
M 195.00 352.00 
C 192.03 345.66 196.36 334.75 195.00 327.00 C 193.64 319.25 195.57 310.66 195.00 303.00 C 194.43 295.34 195.32 286.20 195.00 278.00 C 194.68 269.80 194.55 260.15 195.00 252.00 C 195.45 243.85 195.18 235.10 195.07 227.07 C 194.97 219.04 196.44 211.07 195.00 203.00 C 193.56 194.93 197.70 184.73 196.00 178.00
C 191.10 177.76 193.31 186.47 193.00 194.00 C 192.69 201.53 193.13 209.41 193.00 217.00 C 192.87 224.59 193.04 232.39 193.00 240.00 C 192.96 247.61 192.98 255.41 193.00 263.00 C 193.02 270.59 192.90 278.48 193.00 286.00 C 193.10 293.52 192.75 301.64 193.00 309.00 C 193.25 316.36 192.43 325.01 193.00 332.00 C 193.57 338.99 190.77 347.86 195.00 352.00 Z"/>
</g>
<g fill="#FFFFFF" fill-opacity="0.28" stroke="None">
<path d="
M 146.00 194.00 
C 145.79 194.85 149.31 193.53 148.00 191.00 C 146.69 188.47 148.55 186.57 148.00 184.00
C 147.83 183.22 147.10 182.75 147.00 182.00
C 147.07 184.91 146.00 190.24 146.00 194.00 Z"/>
</g>
<g fill="#FFFFFF" fill-opacity="0.33" stroke="None">
<path d="
M 146.00 200.00 
C 146.00 271.88 145.00 343.84 145.00 416.00
C 146.24 410.13 147.74 401.13 147.00 393.00 C 146.26 384.87 147.33 376.23 147.00 368.00 C 146.67 359.77 147.14 351.24 147.00 343.00 C 146.86 334.76 147.05 326.20 147.00 318.00 C 146.95 309.80 146.99 302.17 147.00 294.00 C 147.01 285.83 146.92 277.14 147.00 269.00 C 147.08 260.86 146.80 251.98 147.00 244.00 C 147.20 236.02 146.54 226.59 147.00 219.00 C 147.46 211.41 146.64 202.75 146.00 200.00 Z"/>
</g>
<g fill="#FFFFFF" fill-opacity="0.54" stroke="None">
<path d="
M 288.00 263.00 
C 287.73 262.80 287.16 262.27 287.00 262.00
C 285.42 262.78 287.67 265.52 289.00 266.00
C 289.22 264.78 288.48 263.98 288.00 263.00 Z"/>
</g>
<g fill="#FFFFFF" fill-opacity="0.53" stroke="None">
<path d="
M 263.00 278.00 
C 262.97 278.02 264.55 278.12 265.73 276.75 C 266.91 275.39 265.31 274.31 265.00 275.00
C 264.32 275.89 263.75 277.09 263.00 278.00 Z"/>
</g>
<g fill="#FFFFFF" fill-opacity="0.40" stroke="None">
<path d="
M 254.00 288.00 
C 253.33 288.91 252.75 290.09 252.00 291.00
C 252.07 290.95 254.10 290.96 255.21 289.24 C 256.32 287.51 254.46 286.45 254.00 288.00 Z"/>
</g>
<g fill="#FFFFFF" fill-opacity="0.29" stroke="None">
<path d="
M 312.00 293.00 
C 311.25 291.91 310.94 291.10 310.00 290.00
C 310.52 291.04 311.31 292.42 312.00 293.00 Z"/>
</g>
<g fill="#FFFFFF" fill-opacity="0.48" stroke="None">
<path d="
M 319.00 302.00 
C 319.00 302.00 319.20 301.40 319.00 301.00
C 316.28 299.73 317.11 302.58 319.00 302.00 Z"/>
</g>
<g fill="#FFFFFF" fill-opacity="0.60" stroke="None">
<path d="
M 228.00 318.00 
C 228.00 318.00 228.18 318.93 228.00 319.00
C 229.09 320.81 231.18 317.04 232.00 316.00
C 230.52 315.95 229.04 317.01 228.00 318.00 Z"/>
</g>
<g fill="#FFFFFF" fill-opacity="0.35" stroke="None">
<path d="
M 268.00 335.00 
C 271.12 331.35 276.43 328.05 279.00 324.00
C 279.03 322.86 280.53 322.28 280.00 321.00
C 274.61 324.22 270.12 330.98 268.00 335.00 Z"/>
</g>
<g fill="#FFFFFF" fill-opacity="0.67" stroke="None">
<path d="
M 295.00 339.00 
C 292.25 333.03 289.09 337.75 295.00 339.00 Z"/>
</g>
<g fill="#FFFFFF" fill-opacity="0.37" stroke="None">
<path d="
M 254.00 351.00 
C 255.72 348.99 257.55 347.07 259.00 345.00
C 260.18 343.31 261.36 342.14 263.00 341.00
C 263.00 341.00 262.79 340.12 263.00 340.00
C 260.78 337.67 254.38 350.28 254.00 351.00 Z"/>
</g>
<g fill="#FFFFFF" fill-opacity="0.06" stroke="None">
<path d="
M 259.00 345.00 
C 260.15 343.60 262.08 342.88 263.00 341.00
C 261.36 342.14 260.18 343.31 259.00 345.00 Z"/>
</g>
<g fill="#FFFFFF" fill-opacity="0.60" stroke="None">
<path d="
M 250.00 354.00 
C 246.15 355.49 250.06 358.33 250.00 354.00 Z"/>
</g>
<g fill="#FFFFFF" fill-opacity="0.62" stroke="None">
<path d="
M 228.00 382.00 
C 222.50 382.74 225.59 387.21 228.00 382.00 Z"/>
</g>
<g fill="#FFFFFF" fill-opacity="0.42" stroke="None">
<path d="
M 174.00 397.00 
C 186.02 391.44 203.21 399.22 216.00 396.00
C 211.18 391.77 200.25 394.80 193.00 394.00 C 185.75 393.20 176.97 393.45 174.00 397.00 Z"/>
</g>
</svg>